<?xml version="1.0" encoding="iso-8859-1"?>
<!-- Uploaded to: SVG Repo, www.svgrepo.com, Generator: SVG Repo Mixer Tools -->
<svg height="800px" width="800px" version="1.1" id="Layer_1" xmlns="http://www.w3.org/2000/svg" xmlns:xlink="http://www.w3.org/1999/xlink" 
	 viewBox="0 0 512 512" xml:space="preserve">
<path style="fill:#EE8700;" d="M0,365.782c0,64.161,52.199,116.364,116.364,116.364c12.853,0,23.273-10.422,23.273-23.273V272.691
	c0-12.854-10.42-23.273-23.273-23.273c-7.969,0-15.749,0.807-23.273,2.341c-17.188,3.503-33.007,10.809-46.545,20.995
	C18.302,294.004,0,327.793,0,365.782z"/>
<path style="fill:#FFB655;" d="M465.455,272.755c-13.539-10.186-29.358-17.492-46.545-20.995
	c-7.523-1.533-15.304-2.341-23.273-2.341c-12.853,0-23.273,10.418-23.273,23.273v186.182c0,12.851,10.42,23.273,23.273,23.273
	c64.163,0,116.364-52.202,116.364-116.364C512,327.793,493.698,294.004,465.455,272.755z"/>
<path style="fill:#6E76E5;" d="M256,29.854c-115.495,0-209.455,93.961-209.455,209.455v33.446
	c13.539-10.186,29.358-17.492,46.545-20.995V239.31c0-89.828,73.079-162.909,162.909-162.909s162.909,73.081,162.909,162.909v12.449
	c17.188,3.503,33.007,10.809,46.545,20.995v-33.446C465.455,123.816,371.495,29.854,256,29.854z"/>
<path style="fill:#424EDE;" d="M46.545,239.309v33.446c13.539-10.186,29.358-17.492,46.545-20.995V239.31
	c0-89.828,73.079-162.909,162.909-162.909V29.856C140.505,29.854,46.545,123.816,46.545,239.309z"/>
</svg>