<?xml version="1.0" encoding="iso-8859-1"?>
<!-- Uploaded to: SVG Repo, www.svgrepo.com, Generator: SVG Repo Mixer Tools -->
<svg height="800px" width="800px" version="1.1" id="Layer_1" xmlns="http://www.w3.org/2000/svg" xmlns:xlink="http://www.w3.org/1999/xlink" 
	 viewBox="0 0 512 512" xml:space="preserve">
<path style="fill:#6E76E5;" d="M356.661,100.662C356.661,45.157,311.504,0,255.997,0c-55.502,0-100.658,45.157-100.658,100.603
	l-0.315,124.239c0,55.678,45.295,100.976,100.973,100.976c55.681,0,100.98-45.297,100.98-101.035L356.661,100.662z"/>
<path style="fill:#424EDE;" d="M255.997,325.818V0c-55.502,0-100.658,45.157-100.658,100.603l-0.315,124.239
	C155.024,280.522,200.319,325.818,255.997,325.818z"/>
<path style="fill:#FFB655;" d="M434.555,240.421c0-12.853-10.42-23.273-23.273-23.273c-12.853,0-23.273,10.42-23.273,23.273
	c0,72.505-58.768,131.528-131.174,131.984c-0.279-0.009-0.552-0.042-0.835-0.042c-0.002,0-0.002,0-0.003,0
	c-0.284,0-0.559,0.033-0.839,0.042c-72.401-0.455-131.167-59.477-131.167-131.984c0-12.853-10.42-23.273-23.273-23.273
	s-23.273,10.42-23.273,23.273c0,90.567,67.781,165.595,155.279,177.034v47.999h-51.197c-12.853,0-23.273,10.42-23.273,23.273
	S168.675,512,181.527,512h74.47H256h74.474c12.853,0,23.273-10.42,23.273-23.273s-10.42-23.273-23.273-23.273H279.27v-47.998
	C366.772,406.016,434.555,330.988,434.555,240.421z"/>
<path style="fill:#EE8700;" d="M255.997,372.364c-0.284,0-0.559,0.033-0.839,0.042c-72.401-0.455-131.167-59.477-131.167-131.984
	c0-12.853-10.42-23.273-23.273-23.273s-23.273,10.42-23.273,23.273c0,90.567,67.781,165.595,155.279,177.034v47.999h-51.197
	c-12.853,0-23.273,10.42-23.273,23.273S168.675,512,181.527,512h74.47H256V372.364C255.998,372.364,255.998,372.364,255.997,372.364
	z"/>
</svg>